<svg width="20" height="20" viewBox="0 0 20 20" fill="none" xmlns="http://www.w3.org/2000/svg">
<path fill-rule="evenodd" clip-rule="evenodd" d="M10 0C4.48 0 0 4.48 0 10C0 15.52 4.48 20 10 20C15.52 20 20 15.52 20 10C20 4.48 15.52 0 10 0ZM9.99994 18.0002C5.58994 18.0002 1.99994 14.4102 1.99994 10.0002C1.99994 5.59023 5.58994 2.00023 9.99994 2.00023C14.4099 2.00023 17.9999 5.59023 17.9999 10.0002C17.9999 14.4102 14.4099 18.0002 9.99994 18.0002ZM8.00003 12.1702L14.59 5.58019L16 7.00019L8.00003 15.0002L4.00003 11.0002L5.41003 9.59019L8.00003 12.1702Z" fill="#D70000"/>
</svg>
