<svg width="18" height="18" viewBox="0 0 18 18" fill="none" xmlns="http://www.w3.org/2000/svg">
<g clip-path="url(#clip0_465_151)">
<path d="M9.0009 18C13.972 18 18.0018 13.9706 18.0018 9C18.0018 4.02944 13.972 0 9.0009 0C4.02984 0 0 4.02944 0 9C0 13.9706 4.02984 18 9.0009 18Z" fill="#5E91FF"/>
<path d="M4.53558 7.9866H6.51394C6.66903 7.9866 6.79708 8.1126 6.79708 8.2692V12.8052C6.79708 12.96 6.67084 13.0878 6.51394 13.0878H4.53558C4.38048 13.0878 4.25244 12.9618 4.25244 12.8052V8.2674C4.25244 8.1126 4.37868 7.9866 4.53558 7.9866ZM7.48779 12.0204V8.7714C7.48959 7.9704 7.71322 7.1874 8.13702 6.507C8.39491 6.0948 8.97201 5.436 9.29663 5.0958C9.36876 5.0184 9.63026 4.7934 9.63026 4.671C9.63026 4.5126 9.64829 4.2588 9.6537 3.7836C9.65731 3.4812 9.90258 3.2346 10.2056 3.2364H10.2182C10.7466 3.2454 10.9161 3.735 10.9161 3.735C10.9161 3.735 11.3688 4.626 10.9468 5.7132C10.5915 6.633 10.5175 6.7068 10.5175 6.7068C10.5175 6.7068 10.4021 6.8724 10.7664 6.8652C10.7664 6.8652 12.9918 6.8562 13.0676 6.8562C13.2317 6.8562 13.7565 7.0056 13.7258 7.6716C13.7042 8.1648 13.3976 8.3376 13.2407 8.3934C13.2209 8.4006 13.2101 8.424 13.2173 8.4438C13.2209 8.4528 13.2263 8.46 13.2353 8.4636C13.3958 8.5572 13.724 8.793 13.7168 9.1548C13.7078 9.5922 13.5311 9.7542 13.165 9.855C13.1451 9.8604 13.1307 9.882 13.1379 9.9018C13.1397 9.9126 13.1469 9.9216 13.156 9.9252C13.2948 10.0044 13.5329 10.197 13.5184 10.5876C13.504 10.9854 13.2155 11.124 13.0586 11.1726C13.0387 11.178 13.0261 11.1996 13.0315 11.2212C13.0333 11.2302 13.0405 11.2374 13.0478 11.2428C13.1469 11.3112 13.2948 11.466 13.2876 11.7828C13.284 11.9502 13.2281 12.0726 13.1578 12.159C13.0459 12.2958 12.871 12.3678 12.6943 12.3696L7.7583 12.3786C7.7565 12.3768 7.48779 12.3786 7.48779 12.0204Z" fill="white"/>
</g>
<defs>
<clipPath id="clip0_465_151">
<rect width="18" height="18" rx="9" fill="white"/>
</clipPath>
</defs>
</svg>
